<svg width="32" height="32" viewBox="0 0 32 32" fill="none" xmlns="http://www.w3.org/2000/svg">
<rect x="0.969696" width="31.0303" height="30.5672" rx="10" fill="#F8FAFC"/>
<path d="M21.8428 20.8008H21.6508L19.9948 19.3848C20.5548 18.7288 21.0268 18.0168 21.4108 17.2488C21.8108 16.4808 22.0108 15.8328 22.0108 15.3048C22.0108 14.8888 21.8908 14.5768 21.6508 14.3688C21.4268 14.1448 21.1628 14.0328 20.8588 14.0328C20.5068 14.0328 20.1148 14.1448 19.6828 14.3688C19.2668 14.5768 18.8428 14.8328 18.4108 15.1368C17.9948 15.4408 17.6028 15.7368 17.2348 16.0248L17.2588 22.6728H17.0188L15.0988 21.3768L15.1228 17.5608C14.6108 17.9448 14.1788 18.2488 13.8268 18.4728C13.4748 18.6968 13.1388 18.8648 12.8188 18.9768C12.5148 19.0728 12.1548 19.1208 11.7388 19.1208C10.9228 19.1208 10.1868 18.9048 9.53081 18.4728C8.89081 18.0408 8.37881 17.4968 7.99481 16.8408C7.62681 16.1688 7.44281 15.5048 7.44281 14.8488C7.44281 14.1608 7.62681 13.5688 7.99481 13.0728C8.36281 12.5768 8.83481 12.1928 9.41081 11.9208C10.0028 11.6488 10.6108 11.5128 11.2348 11.5128C12.0508 11.5128 12.7868 11.7288 13.4428 12.1608C14.1148 12.5768 14.6908 13.0808 15.1708 13.6728L15.2188 9.35283H6.50681L5.69081 7.79283V7.55283H24.5308L25.3468 9.11283V9.35283H17.1868L17.2108 13.6008C17.7068 13.2488 18.2028 12.9368 18.6988 12.6648C19.2108 12.3768 19.6668 12.2328 20.0668 12.2328C20.3548 12.2328 20.6908 12.3288 21.0748 12.5208C21.4748 12.6968 21.8588 12.9688 22.2268 13.3368C22.6108 13.7048 22.9228 14.1608 23.1628 14.7048C23.4188 15.2488 23.5468 15.8808 23.5468 16.6008C23.5468 17.3368 23.3948 18.0328 23.0908 18.6888C22.8028 19.3448 22.3868 20.0488 21.8428 20.8008ZM15.1468 15.1608V14.9928C14.7308 14.5448 14.2348 14.1608 13.6588 13.8408C13.0828 13.5208 12.4828 13.3608 11.8588 13.3608C11.1708 13.3608 10.5468 13.5688 9.98681 13.9848C9.44281 14.4008 9.17081 15.0008 9.17081 15.7848C9.17081 16.3928 9.33081 16.8488 9.65081 17.1528C9.97081 17.4408 10.3468 17.5848 10.7788 17.5848C11.1948 17.5848 11.6508 17.4648 12.1468 17.2248C12.6428 16.9688 13.1468 16.6568 13.6588 16.2888C14.1708 15.9048 14.6668 15.5288 15.1468 15.1608Z" fill="#0F172A"/>
<ellipse cx="26.1818" cy="21.0149" rx="2.42424" ry="2.38806" fill="#7EBAFF"/>
</svg>
